# xmcd
#
# Track frame offsets: 
#        150
#        13819
#        27295
#        40231
#        52974
#        65364
#        74700
#        87335
#        98331
#        107831
#        121412
#        134065
#        144176
#        157614
#        170199
#        182889
#        195191
#        204462
#        217464
#        230576
#        241289
#        255106
#        268370
#        279709
#        292318
#        303214
#        313515
#        328026
#
# Disc length: 4520 seconds
#
# Revision: 1
# Processed by: cddbd v1.5.2PL0 Copyright (c) Steve Scherf et al.
# Submitted via: ExactAudioCopy v1.3
#
DISCID=a611a61c
DTITLE=Merl Lindsay and his Oklahoma Nite Riders - Merl Lindsay and hi
DTITLE=s Oklahoma Nite Riders 1946-1952
DYEAR=2005
DGENRE=Western Swing
TTITLE0=Water Baby Blues
TTITLE1=Gotta Little Red Wagon
TTITLE2=All over Nothing
TTITLE3=Pink Champagne
TTITLE4=Safety Pin Rag
TTITLE5=Cotton Pickin' Boogie
TTITLE6=Don't Say Goodbye
TTITLE7=Lonesome Hearted Blues
TTITLE8=You Crossed Your Fingers
TTITLE9=Steel Guitar Rag
TTITLE10=Your Heart Is Breaking Too
TTITLE11=Grade 'A' Pasteurized Baby
TTITLE12=Your Troubles Are My Troubles
TTITLE13=Spanish Polka
TTITLE14=Mop Rag Boogie
TTITLE15=Sentimental Journey
TTITLE16=Eager Beaver
TTITLE17=Blue Mary
TTITLE18=I'm a Plain Talkin' Man from the West
TTITLE19=A Little Bit Old Fashioned
TTITLE20=Slidin' Steel
TTITLE21=Lonesome Okie Goin' Home
TTITLE22=One Sweet Letter from You
TTITLE23=What's to Become of Me
TTITLE24=Empty Mansions
TTITLE25=Orange Colored Sky
TTITLE26=Lindsay Waltz
TTITLE27=Singing Water Baby Blues
EXTD=
EXTT0=
EXTT1=
EXTT2=
EXTT3=
EXTT4=
EXTT5=
EXTT6=
EXTT7=
EXTT8=
EXTT9=
EXTT10=
EXTT11=
EXTT12=
EXTT13=
EXTT14=
EXTT15=
EXTT16=
EXTT17=
EXTT18=
EXTT19=
EXTT20=
EXTT21=
EXTT22=
EXTT23=
EXTT24=
EXTT25=
EXTT26=
EXTT27=
PLAYORDER=
